<?xml version="1.0" encoding="utf-8"?>
<!-- Generator: Adobe Illustrator 18.1.1, SVG Export Plug-In . SVG Version: 6.00 Build 0)  -->
<!DOCTYPE svg PUBLIC "-//W3C//DTD SVG 1.1//EN" "http://www.w3.org/Graphics/SVG/1.1/DTD/svg11.dtd">
<svg version="1.1" id="Layer_1" xmlns="http://www.w3.org/2000/svg" xmlns:xlink="http://www.w3.org/1999/xlink" x="0px" y="0px"
	 viewBox="0 0 76.3 66" style="enable-background:new 0 0 76.3 66;" xml:space="preserve">
<style type="text/css">
	.st0{fill:#FFFFFF;stroke:#000000;stroke-miterlimit:10;}
	.st1{fill:#DCF90B;stroke:#000000;stroke-miterlimit:10;}
	.st2{fill:none;stroke:#000000;stroke-miterlimit:10;}
	.st3{fill:#F2C68C;stroke:#050505;stroke-miterlimit:10;}
</style>
<path class="st0" d="M6.3,28.6c0,0,3.2-21.3,24.6-23.6c0,0,24.6-3.4,34.2,20.9c0,0,5.3-20.9,8.9-6.2c0,0,3.7,12.2,0,18.1
	c0,0-2.8,6.4-7.3-2.1l-5.3,2.8c0,0-3.4,17.1-16.3,20.8c0,0-26.4,8.9-35.8-12.4C9.3,47,5.7,38.5,6.3,28.6z"/>
<path class="st1" d="M0.8,20.8c0,0,0.6-7.9,7.5,1.2l-1.4,4C6.9,26.1-1.2,29.1,0.8,20.8z"/>
<path class="st1" d="M56.3,13.3c0,0,2-9.2,7.7-3c0,0,6.3,4.8-5.1,5.6"/>
<path class="st1" d="M6.3,32.1c0,0,30.8-21.6,55.1,6.5l14.3-9c0,0-1.9-30.7-10.6-3.7c0,0-5-19.1-31.6-21C33.4,4.8,8.4,3.4,6.3,32.1z
	"/>
<circle class="st0" cx="31.6" cy="17.7" r="5"/>
<circle class="st0" cx="11.3" cy="19.8" r="3"/>
<circle class="st2" cx="31.5" cy="17.6" r="0.9"/>
<circle class="st2" cx="11.3" cy="19.8" r="0.8"/>
<polygon class="st2" points="15.7,10.9 15.7,5.9 19.8,8.1 "/>
<polygon class="st2" points="15.7,47.1 15.7,42.1 19.8,44.3 "/>
<polygon class="st2" points="22.5,56.2 22.5,51.2 26.5,53.4 "/>
<polygon class="st2" points="2.4,38.8 6.7,36.2 6.9,40.8 "/>
<polygon class="st2" points="11.8,58.6 12.9,53.8 16.3,56.8 "/>
<polygon class="st2" points="5.8,49.8 8.4,45.5 10.7,49.6 "/>
<polygon class="st0" points="26.1,63.3 24.5,58.5 29.1,59.4 "/>
<polygon class="st0" points="41.1,64.9 38.3,60.8 42.9,60.3 "/>
<polygon class="st0" points="57.7,56.3 52.9,54.9 56.2,51.6 "/>
<polygon class="st0" points="43.8,53.3 39.2,51.4 42.9,48.5 "/>
<polygon class="st0" points="57,42.5 52,42.6 54.1,38.5 "/>
<polygon class="st0" points="33.7,48.2 30.8,44.2 35.4,43.6 "/>
<polygon class="st0" points="29.9,5.1 32.6,1 34.8,5.1 "/>
<polygon class="st0" points="47.4,7.1 52,5.3 51.4,9.9 "/>
<path class="st3" d="M16.5,32.4c0,0-1.1-7.1,5-2.2c0,0,4.7-6.3,4.9,0.2C26.5,30.4,25.6,42.9,16.5,32.4z"/>
<path d="M17.1,33c0,0,3.3-4.5,8.5,0C25.6,33,21.6,36.3,17.1,33z"/>
<path class="st3" d="M73.7,18.5c0,0-4.5,3.9-5.4,8.9c0,0,6-7.9,6.4-5.3s0.9,5.3,0.9,5.3s-2.5,0-4.9,2.6c0,0,4.9-2.1,4.9-0.5
	c0,1.6-1,7-1,7s-0.9-2.2-3.9-2.1c0,0,5.1,3.4,2.5,4.5C70.8,40.1,79.5,39.2,73.7,18.5z"/>
<path class="st1" d="M43.3,18.5c0,0,7-8.2,8,0.3c0,0,2.2,7.6-7.5,1.5L43.3,18.5z"/>
</svg>
