<?xml version="1.0" encoding="utf-8"?>
<!-- Generator: Adobe Illustrator 18.1.1, SVG Export Plug-In . SVG Version: 6.00 Build 0)  -->
<!DOCTYPE svg PUBLIC "-//W3C//DTD SVG 1.1//EN" "http://www.w3.org/Graphics/SVG/1.1/DTD/svg11.dtd">
<svg version="1.1" id="Layer_1" xmlns="http://www.w3.org/2000/svg" xmlns:xlink="http://www.w3.org/1999/xlink" x="0px" y="0px"
	 width="304px" height="285.6px" viewBox="0 0 304 285.6" style="enable-background:new 0 0 304 285.6;" xml:space="preserve">
<style type="text/css">
	.st0{fill:url(#SVGID_1_);stroke:#000000;stroke-miterlimit:10;}
	.st1{fill:url(#SVGID_2_);stroke:#000000;stroke-miterlimit:10;}
</style>
<linearGradient id="SVGID_1_" gradientUnits="userSpaceOnUse" x1="16.3612" y1="262.1947" x2="107.5811" y2="104.197">
	<stop  offset="0" style="stop-color:#FFFFFF"/>
	<stop  offset="1" style="stop-color:#2B63AF"/>
</linearGradient>
<path class="st0" d="M30.2,161.2c0,0-50.6,7.4-19.8-37c9.2-13.2,19.7-25.1,35.2-31.2c30.6-11.9,71.3,8.6,82.1,39
	c3.1,8.7,5.9,20.8-3.4,26.7c-7.1,4.5-17,4-25,3l21.6,46.2c0,0,9.1,18.9-4.2,24.2c0,0-16.7,7.8-9.8-15.9c0,0,2.6-8.7-7.2-26.1
	c0,0-12.5-17.8-11.4-25c0,0-1.5,31.4,4.9,60.6c0,0,14,40.1-7.2,56.4c-3.1,2.4-8.6,5-11.7,1c-1.1-1.4-1.4-3.3-1.5-5
	c-0.3-4.6,0.7-9.4,2.8-13.5c1.4-2.8,3.4-5.3,4.6-8.2c1.4-3.2,1.6-7,1.4-10.4c-0.4-6.7-2.7-13.3-3.7-20c-1-6.1-1.9-12.2-2.7-18.3
	c-1.8-13.2-3.8-26.9-3.3-40.3c-0.4,8.6-0.6,17.2-0.8,25.9c-0.2,7.2-0.3,14.5-0.3,21.7c0,9,0.8,17.5,1.8,26.4
	c0.8,7-0.2,14.3-1.6,21.1c-1.3,6.4-3.5,12.7-7.4,17.9c-1.2,1.6-2.6,3.1-4.4,3.9s-4.2,0.8-5.6-0.6c-1.1-1-1.5-2.5-1.7-3.9
	c-0.9-6.5,2.1-12.7,4.4-18.9c6.3-16.8,6.8-34.9,2.4-52.2c-1.7-6.7-1.4-14.3-1.5-21.3c-0.1-5.3-1-12.9,1.5-17.8
	c0,0-11.5,31.6-8.3,65.1c0,0,6.8,37.5-9.1,36.7c-8.4-0.4-2.9-24.4-3.2-30c-0.8-14-2.1-28.4-0.6-42.3c1-9.7,1.8-22.4,7.9-30.3
	c-8.7,17.3-15.3,37.6-14,57.2c0.5,6.9,1.2,13.6-0.1,20.5c-0.6,3-1.4,6.9-3.9,9.1c-1.6,1.4-4.3,2.1-6.4,1.8c-1.3-0.2-2.6-0.9-3.1-2.1
	c-0.3-0.8-0.3-1.6-0.2-2.4C19.5,222.2,19.5,190.4,30.2,161.2z"/>
<linearGradient id="SVGID_2_" gradientUnits="userSpaceOnUse" x1="112.8028" y1="253.0577" x2="250.0003" y2="15.4247" gradientTransform="matrix(-0.689 0 0 1 349.6159 0)">
	<stop  offset="0" style="stop-color:#FFFFFF"/>
	<stop  offset="1" style="stop-color:#2E3192"/>
</linearGradient>
<path class="st1" d="M266.1,104.7c0,0,63.8,10.8,24.9-53.9c-11.6-19.3-24.8-36.6-44.4-45.3C208-11.8,156.7,17.9,143,62.2
	c-3.9,12.6-7.4,30.2,4.3,38.8c9,6.6,21.5,5.8,31.6,4.4l-27.3,67.1c0,0-11.5,27.5,5.3,35.2c0,0,21,11.3,12.4-23.1
	c0,0-3.3-12.7,9.1-38c0,0,15.8-25.9,14.3-36.3c0,0,1.9,45.7-6.2,88.1c0,0-17.7,58.4,9.1,82c4,3.5,10.9,7.3,14.7,1.4
	c1.3-2.1,1.8-4.7,1.9-7.3c0.4-6.8-0.9-13.6-3.5-19.7c-1.8-4.1-4.3-7.7-5.8-11.9c-1.8-4.7-2.1-10.1-1.8-15.1
	c0.5-9.8,3.4-19.3,4.7-29.1c1.2-8.8,2.3-17.7,3.4-26.6c2.2-19.2,4.8-39.1,4.1-58.6c0.5,12.5,0.8,25.1,1,37.6
	c0.2,10.5,0.3,21,0.3,31.6c0,13-1,25.5-2.3,38.5c-1.1,10.1,0.2,20.8,2,30.7c1.6,9.2,4.4,18.5,9.4,26c1.5,2.3,3.3,4.5,5.6,5.7
	c2.3,1.2,5.2,1.1,7.1-0.8c1.3-1.4,1.9-3.6,2.2-5.7c1.2-9.4-2.7-18.5-5.6-27.4c-8-24.4-8.6-50.8-3.1-76c2.1-9.7,1.8-20.9,1.9-31
	c0.2-7.8,1.3-18.7-1.8-25.9c0,0,14.5,46,10.5,94.7c0,0-8.6,54.5,11.4,53.4c10.7-0.6,3.6-35.5,4-43.6c1-20.3,2.6-41.3,0.8-61.6
	c-1.3-14.1-2.3-32.6-10-44.1c11,25.2,19.3,54.7,17.6,83.2c-0.6,10-1.5,19.8,0.2,29.8c0.7,4.4,1.8,10,4.9,13.2c2,2.1,5.4,3,8.1,2.6
	c1.6-0.2,3.3-1.3,3.9-3c0.4-1.1,0.3-2.3,0.3-3.5C279.5,193.4,279.6,147.1,266.1,104.7z"/>
<g>
</g>
<g>
</g>
<g>
</g>
<g>
</g>
<g>
</g>
<g>
</g>
<g>
</g>
<g>
</g>
<g>
</g>
<g>
</g>
<g>
</g>
<g>
</g>
<g>
</g>
<g>
</g>
<g>
</g>
</svg>
