<?xml version="1.0" encoding="utf-8"?>
<!-- Generator: Adobe Illustrator 18.1.1, SVG Export Plug-In . SVG Version: 6.00 Build 0)  -->
<!DOCTYPE svg PUBLIC "-//W3C//DTD SVG 1.1//EN" "http://www.w3.org/Graphics/SVG/1.1/DTD/svg11.dtd">
<svg version="1.1" id="Layer_1" xmlns="http://www.w3.org/2000/svg" xmlns:xlink="http://www.w3.org/1999/xlink" x="0px" y="0px"
	 viewBox="0 0 342.5 342.5" style="enable-background:new 0 0 342.5 342.5;" xml:space="preserve">
<style type="text/css">
	.st0{fill:#F7931E;}
	.st1{fill:#FFFFFF;}
	.st2{fill:none;stroke:#F7931E;stroke-width:23;stroke-miterlimit:10;}
	.st3{fill:none;stroke:#F7931E;stroke-width:7;stroke-miterlimit:10;}
	.st4{fill:#F7931E;stroke:#F7931E;stroke-miterlimit:10;}
</style>
<path class="st0" d="M129.4,105.6c0,0,21.6,0.1,25.9-17.1c0,0,7.7-28.5,16.4-29.4c0,0,6.5-3.5,17,25.9c0,0,6.6,21.1,20.2,23.3
	l25.5,2.2c0,0,23.3,1.8,6.1,18L222,144.7c0,0-12.7,9.2-6.1,27.2l4.4,18c0,0,7,25.9-17.6,11l-17.9-12.2c0,0-15.3-9.9-28.7,0.8
	l-18.4,12.7c0,0-20.2,11-15.4-11.9l9.2-25.5c0,0,2.6-13.1-13.2-25l-13.6-11c0,0-24-17.3,7-21.1L129.4,105.6z"/>
<g>
	<circle class="st1" cx="155.4" cy="128.5" r="5"/>
	<circle class="st1" cx="161.7" cy="149.3" r="5"/>
	<circle class="st1" cx="184.9" cy="150" r="5"/>
	<circle class="st1" cx="191.9" cy="128.5" r="5"/>
	<circle class="st1" cx="174" cy="115" r="5"/>
	<circle class="st1" cx="193.3" cy="162.7" r="4"/>
	<circle class="st1" cx="154" cy="162" r="4"/>
	<circle class="st1" cx="205.5" cy="125.7" r="4"/>
	<circle class="st1" cx="173.5" cy="99.9" r="4"/>
	<circle class="st1" cx="141.2" cy="124.3" r="4"/>
	<circle class="st1" cx="201.6" cy="175.1" r="3.3"/>
	<circle class="st1" cx="219.8" cy="122.2" r="3.3"/>
	<circle class="st1" cx="173.3" cy="85.8" r="3.3"/>
	<circle class="st1" cx="127" cy="121" r="3.3"/>
	<circle class="st1" cx="145.9" cy="174.4" r="3.3"/>
	<circle class="st1" cx="209.5" cy="188" r="1.8"/>
	<circle class="st1" cx="138" cy="186.9" r="1.8"/>
	<circle class="st1" cx="234.7" cy="118.9" r="1.8"/>
	<circle class="st1" cx="112.2" cy="117.9" r="1.8"/>
</g>
<circle class="st2" cx="171.2" cy="171.2" r="159.7"/>
<circle class="st3" cx="170.4" cy="172.1" r="126.6"/>
<rect x="0.9" y="213.1" class="st1" width="339.9" height="61.2"/>
<g>
	<path class="st4" d="M53.3,221.9c-0.2,2.5-0.4,4.9-0.6,7.2c-0.2,2.3-0.3,4.5-0.4,6.7c-0.1,2.2-0.2,4.3-0.2,6.5
		c-0.1,2.1-0.1,4.3-0.1,6.5c0,1.7,0,3.2,0.1,4.4c0,1.3,0.2,2.3,0.4,3.1s0.5,1.4,1,1.8c0.4,0.4,1,0.6,1.8,0.6c0.5,0,1,0,1.5-0.1
		c0.6-0.1,1.2-0.3,2-0.6l0.4,1.3c-0.6,0.3-1.2,0.6-1.9,0.9s-1.3,0.5-1.9,0.7c-0.6,0.2-1.2,0.3-1.8,0.5c-0.6,0.1-1.1,0.2-1.5,0.2
		c-0.9,0-1.5-0.2-2.1-0.5c-0.5-0.3-1-0.8-1.3-1.4c-0.3-0.6-0.5-1.4-0.6-2.2c-0.1-0.9-0.2-1.8-0.2-2.8c0-1.1,0-2.3,0.1-3.6
		c0.1-1.3,0.1-2.6,0.2-3.9l-0.2,0c-0.4,1.1-0.8,2.2-1.3,3.4s-1.1,2.3-1.8,3.4c-0.7,1.1-1.4,2.1-2.2,3c-0.8,1-1.7,1.8-2.6,2.5
		c-1,0.7-2,1.3-3.1,1.7c-1.1,0.4-2.3,0.6-3.5,0.6c-1.3,0-2.5-0.2-3.5-0.5c-1-0.4-1.8-0.9-2.5-1.5c-0.7-0.6-1.3-1.4-1.7-2.3
		c-0.5-0.9-0.8-1.9-1.1-2.9c-0.3-1.1-0.4-2.2-0.5-3.3c-0.1-1.2-0.2-2.4-0.2-3.6c0-1.3,0-2.7,0.1-4.1c0.1-1.5,0.2-2.9,0.3-4.4
		c0.1-1.5,0.3-2.9,0.4-4.2c0.2-1.4,0.3-2.6,0.4-3.8c0.1-1.1,0.2-2.1,0.3-2.9c0.1-0.8,0.1-1.4,0.1-1.8c0-0.4,0-0.7-0.1-1
		c-0.1-0.3-0.2-0.5-0.4-0.7c-0.2-0.2-0.5-0.3-0.8-0.4c-0.3-0.1-0.8-0.1-1.3-0.1c-0.4,0-0.8,0-1.3,0.1c-0.5,0-1.1,0.1-1.7,0.2
		l-0.2-1.5c1.7-0.4,3.2-0.7,4.4-0.9s2.2-0.3,3-0.3c0.6,0,1,0.1,1.4,0.2c0.4,0.1,0.7,0.3,0.9,0.6c0.2,0.3,0.4,0.6,0.5,0.9
		c0.1,0.4,0.1,0.8,0.1,1.4c0,0.3,0,0.9-0.1,1.7c-0.1,0.8-0.2,1.8-0.3,3s-0.3,2.5-0.5,3.9s-0.3,2.9-0.5,4.5c-0.1,1.5-0.3,3.1-0.3,4.7
		c-0.1,1.6-0.1,3.1-0.1,4.5c0,0.9,0,1.8,0.1,2.7c0.1,0.9,0.2,1.8,0.3,2.6c0.2,0.8,0.4,1.6,0.7,2.4c0.3,0.7,0.7,1.4,1.2,1.9
		s1.1,1,1.8,1.3c0.7,0.3,1.5,0.5,2.5,0.5c1.2,0,2.3-0.3,3.3-0.8c1.1-0.5,2.1-1.2,3-2.2c0.9-0.9,1.8-2,2.6-3.3s1.5-2.7,2.1-4.2
		s1.1-3.2,1.4-4.9c0.4-1.7,0.6-3.5,0.7-5.3c0-0.7,0.1-1.4,0.1-2c0-0.7,0.1-1.3,0.1-2c0-0.7,0.1-1.4,0.1-2.1c0-0.7,0.1-1.5,0.1-2.4
		c0-0.8,0.1-1.8,0.2-2.7c0.1-1,0.1-2.1,0.2-3.2c0-0.3,0.1-0.5,0.2-0.7c0.1-0.2,0.3-0.3,0.5-0.5s0.4-0.2,0.7-0.3
		c0.3-0.1,0.5-0.1,0.8-0.1c0.3,0,0.7,0,1.1,0.1C52.6,221.6,53,221.7,53.3,221.9z"/>
	<path class="st4" d="M64.7,241.1c0-0.5,0-0.9-0.1-1.2s-0.2-0.6-0.3-0.8c-0.1-0.2-0.3-0.3-0.5-0.4c-0.2-0.1-0.5-0.1-0.8-0.1
		c-0.4,0-0.9,0.1-1.5,0.2c-0.6,0.1-1.2,0.3-1.9,0.5l-0.3-1.2c0.8-0.3,1.6-0.5,2.3-0.8c0.7-0.2,1.4-0.4,2.1-0.6
		c0.6-0.2,1.2-0.3,1.7-0.4s0.9-0.1,1.1-0.1c0.7,0,1.2,0.2,1.5,0.6c0.4,0.4,0.6,1.1,0.6,2c0,0.1,0,0.4,0,0.8c0,0.4-0.1,0.9-0.1,1.6
		c0,0.6-0.1,1.4-0.1,2.2c-0.1,0.8-0.1,1.7-0.2,2.6c-0.1,0.9-0.2,1.9-0.2,2.9c-0.1,1-0.2,2-0.3,3l0.1,0c0.9-2.9,1.8-5.4,2.8-7.4
		c1-2,2-3.7,3-4.9c1-1.3,2-2.2,3.1-2.7c1-0.6,2-0.8,2.9-0.8c0.6,0,1.3,0.1,1.8,0.4c0.6,0.2,1.1,0.6,1.6,1.1c0.5,0.5,0.8,1.2,1.1,2
		c0.3,0.8,0.4,1.8,0.4,3c0,0.3,0,0.8-0.1,1.4c0,0.6-0.1,1.2-0.1,1.9c-0.1,0.7-0.1,1.5-0.2,2.2c-0.1,0.8-0.1,1.6-0.2,2.3
		c-0.1,0.8-0.1,1.5-0.1,2.2c0,0.7-0.1,1.3-0.1,1.8c0,0.9,0,1.6,0.1,2.2c0.1,0.6,0.2,1,0.4,1.3c0.2,0.3,0.4,0.5,0.7,0.7
		c0.3,0.1,0.6,0.2,1,0.2c0.6,0,1.2-0.1,1.8-0.2c0.6-0.2,1.3-0.4,1.9-0.7l0.3,0.9c-0.4,0.3-0.9,0.7-1.6,1c-0.6,0.3-1.3,0.7-2,0.9
		c-0.7,0.3-1.4,0.5-2.1,0.7s-1.3,0.3-1.8,0.3c-0.6,0-1.1-0.2-1.5-0.5c-0.4-0.3-0.6-0.8-0.8-1.4c-0.2-0.6-0.3-1.2-0.3-2
		c-0.1-0.8-0.1-1.6-0.1-2.5c0-1.1,0-2.2,0.1-3.3c0.1-1.1,0.2-2.2,0.2-3.2c0.1-1,0.2-2,0.2-2.8c0.1-0.8,0.1-1.5,0.1-2
		c0-1.3-0.3-2.3-0.8-2.9c-0.5-0.6-1.2-0.9-2-0.9c-0.7,0-1.4,0.3-2.1,0.8c-0.7,0.6-1.5,1.3-2.2,2.3c-0.7,1-1.4,2.1-2.1,3.5
		c-0.7,1.3-1.3,2.8-1.8,4.3c-0.5,1.5-1,3.2-1.3,4.8c-0.4,1.7-0.6,3.4-0.7,5.1l-3.6,0.4l-0.3,0c0.1-1.1,0.2-2.3,0.3-3.5
		c0.1-1.3,0.2-2.6,0.2-3.9c0.1-1.3,0.1-2.6,0.2-3.9c0.1-1.3,0.1-2.5,0.1-3.6c0-1.1,0.1-2.1,0.1-3C64.7,242.4,64.7,241.7,64.7,241.1z
		"/>
	<path class="st4" d="M116.3,214.9c-0.4,2.9-0.8,5.9-1.2,8.9c-0.4,3-0.7,6-1,9.1c-0.3,3-0.5,6-0.7,8.9c-0.2,2.9-0.3,5.7-0.3,8.4
		c0,1.3,0,2.4,0,3.3c0,0.9,0.1,1.7,0.1,2.3c0.1,0.6,0.1,1.1,0.3,1.5s0.2,0.7,0.4,0.9s0.4,0.3,0.6,0.4c0.2,0.1,0.5,0.1,0.8,0.1
		c0.5,0,1.1-0.1,1.8-0.2c0.6-0.2,1.3-0.4,1.9-0.7l0.3,0.9c-0.4,0.3-0.9,0.7-1.5,1c-0.6,0.3-1.3,0.7-2,0.9c-0.7,0.3-1.4,0.5-2,0.7
		c-0.7,0.2-1.2,0.3-1.7,0.3c-0.4,0-0.7,0-0.9-0.1c-0.3-0.1-0.5-0.2-0.7-0.4c-0.2-0.2-0.3-0.5-0.5-0.8c-0.1-0.3-0.2-0.8-0.3-1.3
		c-0.1-0.7-0.2-1.5-0.2-2.4c-0.1-0.9-0.1-1.9-0.1-3c0-1.1,0-2.3,0.1-3.5c0.1-1.2,0.2-2.4,0.4-3.5l-0.2,0c-0.9,2.3-1.8,4.4-2.9,6.3
		c-1,1.9-2.1,3.5-3.2,4.8s-2.2,2.3-3.3,3c-1.1,0.7-2.2,1.1-3.2,1.1c-1,0-1.9-0.3-2.6-0.8c-0.7-0.5-1.3-1.2-1.8-2.1s-0.8-1.8-1.1-2.9
		c-0.2-1.1-0.3-2.2-0.3-3.4c0-1.4,0.2-2.8,0.5-4.1s0.7-2.7,1.3-3.9c0.6-1.2,1.3-2.3,2.1-3.4c0.8-1,1.7-1.9,2.7-2.7
		c1-0.8,2.1-1.3,3.3-1.8c1.2-0.4,2.4-0.6,3.7-0.6c0.9,0,1.8,0.1,2.7,0.3c0.9,0.2,1.8,0.6,2.7,1.1c0.1-1.9,0.1-3.9,0.2-5.9
		c0.1-2,0.2-3.9,0.3-5.8c0.1-1.9,0.2-3.7,0.4-5.4c0.1-1.7,0.3-3.2,0.4-4.5c0-0.3,0.1-0.5,0.3-0.7c0.1-0.2,0.3-0.4,0.6-0.5
		c0.2-0.1,0.5-0.2,0.8-0.3c0.3-0.1,0.6-0.1,0.9-0.1C114.9,214.4,115.6,214.6,116.3,214.9z M110.2,239c-1.5-0.7-3.1-1.1-4.6-1.1
		c-1.1,0-2.1,0.2-3.1,0.5c-0.9,0.4-1.8,0.8-2.5,1.5c-0.7,0.6-1.4,1.4-1.9,2.2c-0.6,0.8-1,1.7-1.4,2.7c-0.4,1-0.6,2-0.8,3
		c-0.2,1-0.3,2.1-0.3,3.1c0,0.4,0,0.8,0.1,1.3c0,0.5,0.1,1,0.2,1.5c0.1,0.5,0.2,1,0.4,1.5c0.2,0.5,0.4,0.9,0.6,1.3s0.5,0.7,0.9,0.9
		c0.3,0.2,0.7,0.4,1.2,0.4c0.8,0,1.7-0.3,2.5-0.9s1.7-1.4,2.5-2.4s1.6-2.2,2.3-3.5c0.7-1.3,1.4-2.7,1.9-4c0.6-1.4,1-2.8,1.4-4.1
		C109.9,241.3,110.1,240.1,110.2,239z"/>
	<path class="st4" d="M138.5,255.5c0.1,0,0.2,0.1,0.3,0.1c0.1,0.1,0.2,0.1,0.3,0.2c0.1,0.1,0.2,0.2,0.2,0.2c0.1,0.1,0.1,0.2,0.1,0.2
		c0,0,0,0.1-0.1,0.1c-0.6,0.9-1.3,1.7-2.1,2.3c-0.7,0.7-1.5,1.2-2.3,1.6c-0.8,0.4-1.6,0.8-2.4,1s-1.6,0.3-2.4,0.3
		c-1.4,0-2.6-0.3-3.8-0.8c-1.1-0.6-2.1-1.3-2.9-2.3s-1.5-2.1-1.9-3.4c-0.5-1.3-0.7-2.7-0.7-4.2c0-1.2,0.1-2.4,0.4-3.7
		c0.3-1.2,0.7-2.4,1.2-3.5c0.5-1.1,1.1-2.1,1.9-3.1c0.7-1,1.6-1.8,2.5-2.5c0.9-0.7,1.9-1.2,3.1-1.6c1.1-0.4,2.3-0.6,3.6-0.6
		c0.8,0,1.6,0.1,2.4,0.3c0.8,0.2,1.4,0.6,2,1c0.6,0.4,1,1,1.4,1.6s0.5,1.3,0.5,2.1c0,1.2-0.4,2.2-1.1,3c-0.8,0.9-1.8,1.6-3.1,2.2
		s-2.9,1.1-4.7,1.5s-3.8,0.6-5.9,0.8v0.3c0,1.5,0.2,2.8,0.6,4c0.4,1.2,0.9,2.2,1.5,3.1c0.6,0.9,1.4,1.5,2.3,2
		c0.9,0.5,1.8,0.7,2.8,0.7c1,0,2.1-0.3,3.2-0.8C136.3,257.5,137.4,256.6,138.5,255.5z M135.3,241.8c0-0.5-0.1-1-0.3-1.5
		s-0.4-0.9-0.7-1.2c-0.3-0.3-0.7-0.6-1.1-0.8c-0.4-0.2-0.9-0.3-1.4-0.3c-0.7,0-1.4,0.1-2,0.4c-0.6,0.3-1.1,0.6-1.6,1.1
		c-0.5,0.5-0.9,1-1.3,1.6c-0.4,0.6-0.7,1.2-0.9,1.9c-0.3,0.7-0.5,1.4-0.6,2.1c-0.2,0.7-0.3,1.4-0.3,2.1c1.6-0.1,3.1-0.3,4.3-0.6
		c1.3-0.3,2.4-0.6,3.2-1.1c0.9-0.4,1.6-1,2-1.6C135,243.3,135.3,242.6,135.3,241.8z"/>
	<path class="st4" d="M145.3,261.2l-0.3,0c0.1-1.1,0.2-2.3,0.3-3.5c0.1-1.3,0.2-2.6,0.2-3.9c0.1-1.3,0.1-2.6,0.2-3.9
		c0.1-1.3,0.1-2.5,0.1-3.6c0-1.1,0.1-2.1,0.1-3c0-0.9,0-1.6,0-2.1c0-0.4,0-0.8-0.1-1.1s-0.1-0.6-0.2-0.8c-0.1-0.2-0.3-0.4-0.5-0.5
		c-0.2-0.1-0.5-0.1-0.9-0.1c-0.2,0-0.4,0-0.6,0c-0.2,0-0.4,0.1-0.7,0.1c-0.3,0-0.5,0.1-0.8,0.2s-0.7,0.2-1.1,0.3l-0.3-1.2
		c1.9-0.7,3.4-1.2,4.6-1.4c1.2-0.3,2-0.4,2.4-0.4c0.8,0,1.3,0.2,1.6,0.7c0.3,0.4,0.5,1.1,0.5,2c0,0.1,0,0.3,0,0.7
		c0,0.4-0.1,0.9-0.1,1.5c0,0.6-0.1,1.3-0.1,2.2c-0.1,0.8-0.1,1.7-0.2,2.6c-0.1,0.9-0.2,1.9-0.2,2.9c-0.1,1-0.2,2-0.3,3.1l0.2,0
		c0.5-2.2,1.2-4.3,1.9-6.2c0.7-1.9,1.5-3.6,2.3-5c0.9-1.4,1.8-2.5,2.8-3.4c1-0.8,2.2-1.2,3.4-1.2c0.4,0,0.8,0.1,1.2,0.2
		s0.7,0.3,1,0.6c0.3,0.2,0.5,0.5,0.6,0.9c0.2,0.3,0.2,0.7,0.2,1.1c0,0.5-0.1,1-0.3,1.5c-0.2,0.5-0.6,0.9-1.1,1.3h-0.1
		c-0.5-0.4-0.9-0.7-1.4-0.9c-0.4-0.2-0.9-0.3-1.4-0.3c-0.5,0-1,0.1-1.5,0.3c-0.5,0.2-0.9,0.5-1.3,0.8c-0.6,0.6-1.3,1.4-1.8,2.3
		c-0.6,1-1.1,2.1-1.5,3.2c-0.5,1.2-0.9,2.4-1.2,3.7s-0.7,2.6-1,3.8c-0.3,1.2-0.5,2.4-0.6,3.5c-0.2,1.1-0.3,2-0.4,2.7L145.3,261.2z"
		/>
	<path class="st4" d="M167.1,231.6l-1.7-0.1c0-1.4-0.1-2.6-0.1-3.7c0-1.1,0.1-2.1,0.2-2.8s0.3-1.4,0.6-2c0.3-0.5,0.8-0.9,1.4-1.1
		s1.4-0.4,2.5-0.4c0.6,0,1.4,0,2.2,0.1s1.7,0.1,2.7,0.1s1.9,0.1,2.9,0.1s1.9,0.1,2.9,0.1c1.5,0,2.9,0,4.1,0s2.2,0,3.2,0
		s1.7,0,2.4-0.1c0.7,0,1.3-0.1,1.9-0.1c0.6,0,1.1-0.1,1.6-0.2c0.5-0.1,1-0.1,1.5-0.2c0.2,0.5,0.3,1,0.3,1.3c0,0.8-0.3,1.3-0.9,1.7
		c-0.6,0.4-1.6,0.6-2.8,0.6c-1.2,0-2.6-0.1-4.1-0.2c-1.6-0.1-3.4-0.3-5.4-0.4c0,1.7-0.1,3.5-0.1,5.4c-0.1,1.9-0.1,3.9-0.2,5.9
		s-0.1,4.1-0.2,6.3c-0.1,2.1-0.1,4.3-0.2,6.4c-0.1,2.1-0.1,4.3-0.2,6.3c-0.1,2.1-0.1,4.1-0.2,6.1l-4,0.5l-0.3,0
		c0.1-2.2,0.2-4.3,0.3-6.3c0.1-2,0.2-4,0.2-5.9s0.1-3.8,0.2-5.8c0.1-1.9,0.1-3.9,0.1-5.9s0.1-4.1,0.1-6.3c0-2.2,0-4.5,0-7
		c-0.6,0-1.3,0-2-0.1c-0.7,0-1.4,0-2.1,0c-0.7,0-1.3,0-1.9,0c-0.6,0-1.2,0.1-1.7,0.2s-1,0.4-1.3,0.6c-0.4,0.3-0.7,0.7-1,1.2
		c-0.3,0.5-0.5,1.2-0.6,2c-0.1,0.8-0.2,1.8-0.2,3V231.6z"/>
	<path class="st4" d="M201.2,251.7c0.9-2.9,1.8-5.3,2.8-7.3c1-2,2-3.6,3-4.9c1-1.2,2-2.2,3-2.7c1-0.6,2-0.8,2.9-0.8
		c0.6,0,1.3,0.1,1.8,0.4s1.1,0.6,1.6,1.1c0.5,0.5,0.8,1.2,1.1,2s0.4,1.8,0.4,2.9c0,0.3,0,0.8-0.1,1.4c0,0.6-0.1,1.2-0.1,2
		c-0.1,0.7-0.1,1.5-0.2,2.3c-0.1,0.8-0.1,1.6-0.2,2.4s-0.1,1.5-0.1,2.2c0,0.7-0.1,1.3-0.1,1.8c0,0.9,0,1.6,0.1,2.2
		c0.1,0.6,0.2,1,0.4,1.3c0.2,0.3,0.4,0.5,0.7,0.7c0.3,0.1,0.6,0.2,1,0.2c0.6,0,1.2-0.1,1.8-0.2c0.6-0.2,1.3-0.4,1.9-0.7l0.3,0.9
		c-0.4,0.3-0.9,0.7-1.6,1s-1.3,0.7-2,0.9c-0.7,0.3-1.4,0.5-2.1,0.7s-1.3,0.3-1.8,0.3c-0.6,0-1.1-0.2-1.5-0.5
		c-0.4-0.3-0.6-0.8-0.8-1.4c-0.2-0.6-0.3-1.2-0.3-2c-0.1-0.8-0.1-1.6-0.1-2.5c0-1.1,0-2.2,0.1-3.3s0.2-2.2,0.2-3.2
		c0.1-1,0.2-2,0.2-2.8s0.1-1.6,0.1-2.1c0-1.3-0.2-2.2-0.7-2.8c-0.5-0.6-1.2-0.9-2-0.9c-0.6,0-1.3,0.3-2.1,0.8
		c-0.7,0.6-1.5,1.3-2.2,2.3c-0.7,1-1.4,2.1-2.1,3.5s-1.3,2.8-1.8,4.3s-1,3.2-1.3,4.8c-0.4,1.7-0.6,3.4-0.7,5.1l-3.6,0.4l-0.3,0
		c0.1-1.3,0.1-2.8,0.2-4.5c0.1-1.6,0.2-3.3,0.3-5.2c0.1-1.8,0.2-3.7,0.3-5.7c0.1-2,0.2-4,0.3-6s0.2-4.1,0.3-6.2s0.2-4.1,0.3-6.2
		c0.1-2,0.2-4,0.3-6s0.2-3.8,0.3-5.6c0-0.3,0.1-0.5,0.2-0.7c0.1-0.2,0.3-0.4,0.6-0.5c0.2-0.1,0.5-0.2,0.8-0.3
		c0.3-0.1,0.6-0.1,0.9-0.1c0.7,0,1.4,0.2,2.2,0.5c-0.3,2.3-0.5,4.5-0.7,6.4s-0.4,3.7-0.6,5.4c-0.2,1.7-0.3,3.2-0.4,4.6
		c-0.1,1.4-0.3,2.8-0.4,4.1c-0.1,1.3-0.2,2.6-0.3,3.9c-0.1,1.3-0.2,2.5-0.3,3.8c-0.1,1.3-0.2,2.6-0.3,4s-0.2,2.9-0.3,4.5
		L201.2,251.7z"/>
	<path class="st4" d="M242.3,255.5c0.1,0,0.2,0.1,0.3,0.1c0.1,0.1,0.2,0.1,0.3,0.2c0.1,0.1,0.2,0.2,0.2,0.2c0.1,0.1,0.1,0.2,0.1,0.2
		c0,0,0,0.1-0.1,0.1c-0.6,0.9-1.3,1.7-2.1,2.3c-0.7,0.7-1.5,1.2-2.3,1.6c-0.8,0.4-1.6,0.8-2.4,1s-1.6,0.3-2.4,0.3
		c-1.4,0-2.6-0.3-3.8-0.8c-1.1-0.6-2.1-1.3-2.9-2.3s-1.5-2.1-1.9-3.4c-0.5-1.3-0.7-2.7-0.7-4.2c0-1.2,0.1-2.4,0.4-3.7
		c0.3-1.2,0.7-2.4,1.2-3.5c0.5-1.1,1.1-2.1,1.9-3.1c0.7-1,1.6-1.8,2.5-2.5c0.9-0.7,1.9-1.2,3.1-1.6c1.1-0.4,2.3-0.6,3.6-0.6
		c0.8,0,1.6,0.1,2.4,0.3s1.4,0.6,2,1c0.6,0.4,1,1,1.4,1.6s0.5,1.3,0.5,2.1c0,1.2-0.4,2.2-1.1,3c-0.8,0.9-1.8,1.6-3.1,2.2
		s-2.9,1.1-4.7,1.5s-3.8,0.6-5.9,0.8v0.3c0,1.5,0.2,2.8,0.6,4c0.4,1.2,0.9,2.2,1.5,3.1c0.6,0.9,1.4,1.5,2.3,2s1.8,0.7,2.8,0.7
		c1,0,2.1-0.3,3.2-0.8C240.1,257.5,241.2,256.6,242.3,255.5z M239.1,241.8c0-0.5-0.1-1-0.3-1.5s-0.4-0.9-0.7-1.2
		c-0.3-0.3-0.7-0.6-1.1-0.8s-0.9-0.3-1.4-0.3c-0.7,0-1.4,0.1-2,0.4s-1.1,0.6-1.6,1.1c-0.5,0.5-0.9,1-1.3,1.6
		c-0.4,0.6-0.7,1.2-0.9,1.9c-0.3,0.7-0.5,1.4-0.6,2.1c-0.2,0.7-0.3,1.4-0.3,2.1c1.6-0.1,3.1-0.3,4.3-0.6c1.3-0.3,2.4-0.6,3.2-1.1
		c0.9-0.4,1.6-1,2-1.6C238.9,243.3,239.1,242.6,239.1,241.8z"/>
	<path class="st4" d="M256.8,250.7c0,0.3-0.1,0.5-0.1,0.8c0,0.3,0,0.5,0,0.8c0,1.3,0.2,2.4,0.5,3.3c0.3,0.9,0.8,1.6,1.5,2.2
		s1.4,1,2.3,1.2c0.9,0.3,1.9,0.4,3.1,0.4c1.1,0,2.2-0.2,3.2-0.5s1.9-0.8,2.7-1.4c0.8-0.6,1.4-1.4,1.8-2.3c0.5-0.9,0.7-2,0.7-3.2
		c0-0.8-0.1-1.5-0.3-2.1s-0.5-1.2-0.9-1.8s-0.8-1-1.3-1.5c-0.5-0.5-1.1-0.9-1.7-1.3c-0.6-0.4-1.2-0.8-1.9-1.2
		c-0.7-0.4-1.3-0.7-2-1.1c-0.7-0.4-1.4-0.8-2.1-1.2c-0.7-0.4-1.4-0.8-2-1.3s-1.3-1-1.8-1.5c-0.6-0.5-1-1.1-1.4-1.8s-0.7-1.4-1-2.2
		c-0.2-0.8-0.4-1.7-0.4-2.6c0-1.2,0.2-2.3,0.5-3.4c0.3-1,0.7-2,1.3-2.9c0.6-0.9,1.2-1.6,2-2.3c0.8-0.7,1.6-1.3,2.5-1.7
		c0.9-0.5,1.9-0.8,2.9-1.1c1-0.2,2.1-0.4,3.2-0.4c0.5,0,1,0,1.6,0.1c0.6,0.1,1.1,0.2,1.7,0.3c0.6,0.1,1.1,0.3,1.6,0.5
		c0.5,0.2,1,0.4,1.4,0.6c0.4,0.2,0.7,0.5,1,0.8c0.2,0.3,0.4,0.6,0.4,0.9c0,0.3,0,0.7,0,1.2c0,0.5,0,1.1,0,1.7c0,0.6,0,1.3-0.1,2.1
		c0,0.7-0.1,1.5-0.1,2.4l-1.7-0.1c0-0.4,0.1-0.8,0.1-1.2c0-1.1-0.2-2.1-0.5-3c-0.3-0.9-0.8-1.6-1.4-2.2c-0.6-0.6-1.3-1-2.2-1.3
		c-0.9-0.3-1.8-0.4-2.9-0.4c-1,0-2,0.2-2.9,0.5s-1.7,0.8-2.4,1.5c-0.7,0.6-1.2,1.4-1.6,2.2s-0.6,1.8-0.6,2.8c0,0.8,0.1,1.6,0.3,2.3
		c0.2,0.7,0.5,1.3,0.9,1.9c0.4,0.6,0.8,1.1,1.4,1.6c0.5,0.5,1.1,0.9,1.7,1.3s1.3,0.8,1.9,1.2s1.4,0.8,2.1,1.1
		c0.7,0.4,1.4,0.8,2.1,1.2c0.7,0.4,1.4,0.8,2,1.3c0.6,0.5,1.2,0.9,1.8,1.5c0.6,0.5,1,1.1,1.4,1.8c0.4,0.6,0.7,1.4,1,2.1
		c0.2,0.8,0.3,1.6,0.3,2.6c0,1.6-0.2,2.9-0.6,4.2c-0.4,1.2-1,2.3-1.7,3.2c-0.7,0.9-1.5,1.6-2.5,2.3c-0.9,0.6-1.9,1.1-2.9,1.5
		c-1,0.4-2,0.6-3,0.8c-1,0.2-1.9,0.2-2.8,0.2c-1.1,0-2.2-0.1-3.2-0.2c-1-0.2-1.9-0.4-2.6-0.6c-0.7-0.3-1.3-0.5-1.8-0.9
		c-0.4-0.3-0.6-0.7-0.6-1c0-0.8,0-1.9,0.1-3.3c0.1-1.4,0.1-3.1,0.2-5.1L256.8,250.7z"/>
	<path class="st4" d="M297.5,255.5c0.1,0,0.2,0.1,0.3,0.1c0.1,0.1,0.2,0.1,0.3,0.2c0.1,0.1,0.2,0.2,0.2,0.2c0.1,0.1,0.1,0.2,0.1,0.2
		c0,0,0,0.1-0.1,0.1c-0.6,0.9-1.3,1.7-2.1,2.3c-0.7,0.7-1.5,1.2-2.3,1.6c-0.8,0.4-1.6,0.8-2.4,1s-1.6,0.3-2.4,0.3
		c-1.4,0-2.6-0.3-3.8-0.8c-1.1-0.6-2.1-1.3-2.9-2.3s-1.5-2.1-1.9-3.4c-0.5-1.3-0.7-2.7-0.7-4.2c0-1.2,0.1-2.4,0.4-3.7
		c0.3-1.2,0.7-2.4,1.2-3.5c0.5-1.1,1.1-2.1,1.9-3.1c0.7-1,1.6-1.8,2.5-2.5c0.9-0.7,1.9-1.2,3.1-1.6c1.1-0.4,2.3-0.6,3.6-0.6
		c0.8,0,1.6,0.1,2.4,0.3c0.8,0.2,1.4,0.6,2,1c0.6,0.4,1,1,1.4,1.6s0.5,1.3,0.5,2.1c0,1.2-0.4,2.2-1.1,3c-0.8,0.9-1.8,1.6-3.1,2.2
		c-1.3,0.6-2.9,1.1-4.7,1.5s-3.8,0.6-5.9,0.8v0.3c0,1.5,0.2,2.8,0.6,4c0.4,1.2,0.9,2.2,1.5,3.1c0.6,0.9,1.4,1.5,2.3,2
		c0.9,0.5,1.8,0.7,2.8,0.7c1,0,2.1-0.3,3.2-0.8C295.3,257.5,296.4,256.6,297.5,255.5z M294.3,241.8c0-0.5-0.1-1-0.3-1.5
		s-0.4-0.9-0.7-1.2c-0.3-0.3-0.7-0.6-1.1-0.8c-0.4-0.2-0.9-0.3-1.4-0.3c-0.7,0-1.4,0.1-2,0.4c-0.6,0.3-1.1,0.6-1.6,1.1
		c-0.5,0.5-0.9,1-1.3,1.6c-0.4,0.6-0.7,1.2-0.9,1.9c-0.3,0.7-0.5,1.4-0.6,2.1c-0.2,0.7-0.3,1.4-0.3,2.1c1.6-0.1,3.1-0.3,4.3-0.6
		c1.3-0.3,2.4-0.6,3.2-1.1c0.9-0.4,1.6-1,2-1.6C294.1,243.3,294.3,242.6,294.3,241.8z"/>
	<path class="st4" d="M316.1,243.2c0-0.9-0.1-1.7-0.4-2.3c-0.3-0.7-0.7-1.2-1.2-1.6c-0.5-0.4-1-0.7-1.6-0.9
		c-0.6-0.2-1.2-0.3-1.8-0.3c-0.8,0-1.5,0.1-2.1,0.3c-0.6,0.2-1,0.4-1.4,0.7c-0.3,0.3-0.6,0.6-0.8,1.1c-0.2,0.4-0.2,0.8-0.2,1.3
		c0,0.5,0.1,1.1,0.3,1.6c0.2,0.6,0.5,1.1,0.9,1.6l-0.1,0.2c-0.6,0.3-1.3,0.5-2,0.5c-0.4,0-0.8-0.1-1.1-0.2c-0.3-0.1-0.6-0.3-0.9-0.5
		c-0.2-0.2-0.4-0.5-0.6-0.8c-0.1-0.3-0.2-0.7-0.2-1.1c0-0.7,0.2-1.3,0.5-1.9c0.3-0.6,0.8-1.1,1.3-1.6c0.5-0.5,1.2-0.9,1.9-1.3
		c0.7-0.4,1.4-0.7,2.2-1c0.8-0.3,1.5-0.5,2.3-0.6c0.8-0.1,1.5-0.2,2.1-0.2c1.2,0,2.2,0.2,3.1,0.5c0.8,0.3,1.5,0.8,2.1,1.4
		c0.5,0.6,0.9,1.3,1.2,2.2c0.2,0.9,0.4,1.8,0.4,2.9c0,0.8,0,1.6-0.1,2.5s-0.1,1.8-0.2,2.8c-0.1,1-0.2,2-0.2,3.1
		c-0.1,1-0.1,2.1-0.1,3.1c0,1.6,0.3,2.9,0.9,3.7c0.6,0.8,1.4,1.2,2.4,1.2c0.9,0,1.9-0.3,2.9-1l0.5,0.7c-0.8,0.8-1.6,1.3-2.5,1.7
		c-0.9,0.4-1.8,0.6-2.8,0.6c-0.7,0-1.4-0.1-2.1-0.4c-0.6-0.3-1.2-0.6-1.6-1.1c-0.5-0.5-0.8-1.1-1.1-1.9c-0.3-0.8-0.4-1.6-0.4-2.6
		c0-0.3,0-0.6,0-0.9c0-0.3,0.1-0.6,0.1-0.9h-0.1c-0.5,1-1.1,1.9-1.7,2.9s-1.3,1.8-2.1,2.5c-0.8,0.7-1.6,1.4-2.5,1.8
		c-0.9,0.5-1.8,0.7-2.7,0.7c-0.8,0-1.5-0.1-2.2-0.4c-0.6-0.3-1.2-0.6-1.7-1.1c-0.5-0.5-0.8-1-1.1-1.7c-0.3-0.7-0.4-1.4-0.4-2.1
		c0-1,0.2-1.9,0.6-2.7c0.4-0.8,0.9-1.6,1.5-2.2c0.7-0.6,1.4-1.2,2.3-1.7c0.9-0.5,1.9-0.9,3-1.2c1.1-0.3,2.2-0.5,3.4-0.7
		c1.2-0.2,2.4-0.2,3.7-0.2c0.1-0.7,0.1-1.4,0.2-2.1C316,244.8,316.1,244,316.1,243.2z M305.6,255c0,0.4,0,0.9,0.1,1.3
		c0.1,0.4,0.3,0.8,0.5,1.1c0.2,0.3,0.5,0.5,0.8,0.7c0.3,0.2,0.7,0.3,1.2,0.3c0.5,0,1-0.1,1.6-0.4s1.1-0.6,1.6-1
		c0.5-0.4,1-0.9,1.5-1.5c0.5-0.6,0.9-1.2,1.3-1.9c0.4-0.7,0.7-1.4,1-2.2c0.3-0.8,0.4-1.6,0.5-2.4c-0.8,0-1.7,0.1-2.5,0.2
		c-0.8,0.1-1.6,0.2-2.4,0.4c-0.7,0.2-1.4,0.4-2.1,0.7c-0.6,0.3-1.2,0.7-1.6,1.1c-0.5,0.4-0.8,1-1.1,1.6
		C305.7,253.5,305.6,254.2,305.6,255z"/>
</g>
<g>
</g>
<g>
</g>
<g>
</g>
<g>
</g>
<g>
</g>
<g>
</g>
<g>
</g>
<g>
</g>
<g>
</g>
<g>
</g>
<g>
</g>
<g>
</g>
<g>
</g>
<g>
</g>
<g>
</g>
</svg>
