<?xml version="1.0" encoding="utf-8"?>
<!-- Generator: Adobe Illustrator 18.1.1, SVG Export Plug-In . SVG Version: 6.00 Build 0)  -->
<!DOCTYPE svg PUBLIC "-//W3C//DTD SVG 1.1//EN" "http://www.w3.org/Graphics/SVG/1.1/DTD/svg11.dtd">
<svg version="1.1" id="Layer_1" xmlns="http://www.w3.org/2000/svg" xmlns:xlink="http://www.w3.org/1999/xlink" x="0px" y="0px"
	 viewBox="-301.6 297 1448.8 631" style="enable-background:new -301.6 297 1448.8 631;" xml:space="preserve">
<style type="text/css">
	.st0{fill:url(#SVGID_1_);}
	.st1{opacity:0.97;}
	.st2{opacity:4.000000e-02;fill:#FFFFFF;enable-background:new    ;}
</style>
<linearGradient id="SVGID_1_" gradientUnits="userSpaceOnUse" x1="83.5" y1="893.15" x2="713.5" y2="893.15" gradientTransform="matrix(0 1 -1 0 1316 214)">
	<stop  offset="0" style="stop-color:#2BACE2"/>
	<stop  offset="0" style="stop-color:#2BACE2"/>
	<stop  offset="2.700000e-02" style="stop-color:#29AAE1"/>
	<stop  offset="2.800000e-02" style="stop-color:#29AAE1"/>
	<stop  offset="7.800000e-02" style="stop-color:#29AAE1"/>
	<stop  offset="0.329" style="stop-color:#2075BC"/>
	<stop  offset="0.751" style="stop-color:#2E368F"/>
</linearGradient>
<path class="st0" d="M-301.1,297.5h1447.8v630H-301.1V297.5z"/>
<g class="st1">
	<circle class="st2" cx="125.4" cy="470.7" r="39"/>
	<circle class="st2" cx="179.4" cy="375.7" r="15"/>
	<circle class="st2" cx="194.4" cy="568.7" r="15"/>
	<circle class="st2" cx="113.4" cy="671.7" r="27"/>
	<circle class="st2" cx="732.3" cy="710.7" r="27"/>
	<circle class="st2" cx="624.3" cy="593.7" r="15"/>
	<circle class="st2" cx="705.3" cy="496.7" r="39"/>
	<circle class="st2" cx="618.2" cy="375.7" r="15"/>
	<circle class="st2" cx="460.5" cy="833.2" r="27"/>
	<circle class="st2" cx="352.5" cy="716.2" r="15"/>
	<circle class="st2" cx="433.5" cy="619.2" r="39"/>
	<circle class="st2" cx="346.4" cy="498.2" r="15"/>
</g>
<g class="st1">
	<circle class="st2" cx="890.3" cy="655.8" r="39"/>
	<circle class="st2" cx="944.3" cy="560.8" r="15"/>
	<circle class="st2" cx="959.3" cy="753.8" r="15"/>
	<circle class="st2" cx="878.3" cy="856.8" r="27"/>
	<circle class="st2" cx="1117.4" cy="901.3" r="15"/>
	<circle class="st2" cx="1111.3" cy="683.3" r="15"/>
</g>
<g class="st1">
	<circle class="st2" cx="-54.7" cy="549" r="39"/>
	<circle class="st2" cx="45.1" cy="593.5" r="15"/>
	<circle class="st2" cx="-145.5" cy="627.3" r="15"/>
	<circle class="st2" cx="-255.9" cy="556.8" r="27"/>
	<circle class="st2" cx="-276.8" cy="799.1" r="15"/>
	<circle class="st2" cx="-172.3" cy="870.2" r="39"/>
	<circle class="st2" cx="-60.4" cy="771.7" r="15"/>
</g>
</svg>
