<?xml version="1.0" encoding="utf-8"?>
<!-- Generator: Adobe Illustrator 18.1.1, SVG Export Plug-In . SVG Version: 6.00 Build 0)  -->
<!DOCTYPE svg PUBLIC "-//W3C//DTD SVG 1.1//EN" "http://www.w3.org/Graphics/SVG/1.1/DTD/svg11.dtd">
<svg version="1.1" id="Layer_1" xmlns="http://www.w3.org/2000/svg" xmlns:xlink="http://www.w3.org/1999/xlink" x="0px" y="0px"
	 viewBox="0 0 88.7 196.9" style="enable-background:new 0 0 88.7 196.9;" xml:space="preserve">
<style type="text/css">
	.st0{fill:#FFFFFF;}
</style>
<path class="st0" d="M73.3,100.2l15.4,8.3V72l-17.4,9.6c0,0-4.9-25.1,14-27.9c0,0-18.1-17,0-37.7c0,0-27.5,9.8-26.3-16
	c0,0-17.7,22.7-36.5,9.1c0,0,14,19.5-3.5,30h-14L0,36.5l1.6,12.4c0,0,30-8.4,40.5,9.1v11.2c0,0-33.5,10.5-6.3,51.6L59,156.2v20.1
	c0,0-18.4,20.8-33,0c0,0-6.1-9.7,4.3-15.3c0,0,4-1.4,7.7,1.4c0,0,7.7,6.2,10.8,12.1c0,0-8.3-36.8-31.2-14.9c0,0-12.6,29.3,22.3,37
	c0,0,28.6,3.3,33.5-20.3v-36.9l11.9-9.1l-12.6-9.1"/>
<g>
</g>
<g>
</g>
<g>
</g>
<g>
</g>
<g>
</g>
<g>
</g>
</svg>
