<svg xmlns="http://www.w3.org/2000/svg" viewBox="0 0 1296 1008" enable-background="new 0 0 1296 1008"><style type="text/css">.st0{fill:#F8971D;stroke:#020202;stroke-width:4.536;stroke-linecap:round;stroke-miterlimit:10;} .st1{fill:#25D89D;stroke:#000000;stroke-width:4.536;stroke-linecap:round;stroke-miterlimit:10;} .st2{fill:#1AC161;stroke:#000000;stroke-width:4.536;stroke-linecap:round;stroke-miterlimit:10;} .st3{fill:#FFFFFF;stroke:#020202;stroke-width:4.536;stroke-linecap:round;stroke-miterlimit:10;} .st4{fill:#020202;stroke:#000000;stroke-width:4.536;stroke-linecap:round;stroke-miterlimit:10;}</style><path class="st0" d="M796.2 513l78.8 42.5v-186.9l-89 49.1s-25.1-128.5 71.7-142.8c0 0-92.7-87 0-193 0 0-140.8 50.2-134.6-81.9 0 0-90.6 116.2-186.9 46.6 0 0 71.7 99.8-17.9 153.6h-71.7l-25.6-13.3 8.2 63.5s153.6-43 207.3 46.6v57.3s-171.5 53.8-32.3 264.2l118.8 181.1v102.9s-94.2 106.5-168.9 0c0 0-31.2-49.7 22-78.3 0 0 20.5-7.2 39.4 7.2 0 0 39.4 31.7 55.3 61.9 0 0-42.5-188.4-159.7-76.3 0 0-64.5 150 114.2 189.4 0 0 146.4 16.9 171.5-103.9v-188.9l60.9-46.6-64.5-46.6 3-107.4z"/><path class="st1" d="M636.5 354.3l39.8 55.2s-53.4 30.5-49.6 64.8l-67.7-49.4s16.2-45.9 67.7-66.8l9.8-3.8z"/><path class="st2" d="M626.7 474.3s0 72.4 36.2 116.3l-80-7.6s-49.6-83.7-23.9-158.1l67.7 49.4z"/><path class="st1" d="M662.9 590.6l50 78.9-64.9 15.7-65.2-102.2z"/><path class="st2" d="M712.9 669.5l10.1 130.1-75-114.4zM676.2 409.5v-89.3l-39.7-23.3v57.4zM786 417.7l11.5 30.1 77.5-46.2v-33z"/><path class="st1" d="M799.1 482.9l-1.6-35.1 77.5-46.2v90.9z"/><path class="st2" d="M799.1 482.9l-2.9 30.1 78.8 42.4v-62.9zM793.1 620.5l3.6 93.1 60.9-46.5zM523.2 197.2l83.4 67.9s-44.9-46.3-177.5-14.8l-8.2-63.5 28.8 13.7 73.5-3.3zM617.6 833.1l5.1-33.5s39.1 35.8 53.5 109.2c0 0-31-65-58.6-75.7z"/><path class="st1" d="M551.6 846.1l-40.5-29s47-70.8 111.7-17.4l-5.1 33.5c-.1-.1-45.6-19.6-66.1 12.9z"/><path class="st2" d="M551.6 846.1l-40.5-29s-23.2 46.8 0 113.2l55.8-11.6c0-.1-25.1-26.9-15.3-72.6z"/><path class="st1" d="M511.1 930.2s36.1 74.9 145.3 77.8v-62s-52 15.9-89.5-27.4l-55.8 11.6z"/><path class="st2" d="M656.4 946s54.4-24.3 66.6-43.5h73.7s-3.6 97.2-140.4 105.5l.1-62z"/><path class="st1" d="M723 799.6l73.7 102.9h-73.7zM723 799.6l73.2-51.4-3.1-127.7-80.2 49z"/><path class="st2" d="M796.2 748.2l.5 154.3-73.7-102.9zM793.1 620.5l-130.2-29.9 50 78.9z"/><path class="st1" d="M626.7 474.3l169.5 38.7-3.1 107.5-130.2-29.8c0-.1-36-41.8-36.2-116.4z"/><path class="st2" d="M676.2 409.5l109.7 8.2 11.5 30.1 1.6 35.1-2.8 30.1-169.5-38.6c0-.1-7.8-31.7 49.5-64.9z"/><path class="st1" d="M676.2 320.2l108.9 34.1.9 63.4-109.8-8.2z"/><path class="st2" d="M648.7 119.7l-12.2-56.9s-58.8 21.7-100.3-16.2c0 0 41.6 63.7 25.3 97.3l61.3 30 25.9-54.2z"/><path class="st1" d="M648.7 119.7l-12.2-56.9s39.1-12.7 86.5-62.8c0 0-3.1 66.7 36.9 82.5l-69.1 79.3-42.1-42.1z"/><path class="st2" d="M816.5 181.2l-134 5.7-6.2-39.6 83.6-64.8s47.7 23.6 97.8-.6c-.1 0-48.5 59.9-41.2 99.3z"/><path class="st1" d="M811.3 296.9l-120.6-64.9 7.4-45.2 118.3-5.7s6.5 71.4 41.2 93.7c0 .1-32.8 4-46.3 22.1z"/><path class="st2" d="M785.1 354.3l-108.9-34.1 14.5-88.2 120.6 64.9s-25.3 34.7-26.2 57.4z"/><path class="st1" d="M518.2 200.2s112.2 69.9 118.3 96.8l39.8 23.3 21.9-133.3h-49.5l-87.2-42.9c0-.2-2.5 32.8-43.3 56.1z"/><circle class="st3" cx="648.7" cy="161.8" r="42.1"/><circle class="st4" cx="628.2" cy="162.5" r="18.6"/></svg>