<svg xmlns="http://www.w3.org/2000/svg" viewBox="548 404 200 400" enable-background="new 548 404 200 400"><style type="text/css">.st0{fill:#F8971D;stroke:#020202;stroke-width:1.152;stroke-linecap:round;stroke-miterlimit:10;} .st1{fill:#25D89D;stroke:#000000;stroke-width:1.152;stroke-linecap:round;stroke-miterlimit:10;} .st2{fill:#1AC161;stroke:#000000;stroke-width:1.152;stroke-linecap:round;stroke-miterlimit:10;} .st3{fill:#FFFFFF;stroke:#020202;stroke-width:1.152;stroke-linecap:round;stroke-miterlimit:10;} .st4{fill:#020202;stroke:#000000;stroke-width:1.152;stroke-linecap:round;stroke-miterlimit:10;} .st5{fill:#FFF200;stroke:#000000;stroke-width:1.152;stroke-linecap:round;stroke-miterlimit:10;} .st6{fill:#FFAA00;stroke:#000000;stroke-width:1.152;stroke-linecap:round;stroke-miterlimit:10;}</style><path class="st0" d="M675.7 506.3l14.7 7.9v-34.8l-16.6 9.2s-4.7-23.9 13.4-26.6c0 0-17.3-16.2 0-36 0 0-26.2 9.4-25.1-15.3 0 0-16.9 21.7-34.8 8.7 0 0 13.4 18.6-3.3 28.6h-13.4l-4.8-2.5 1.5 11.8s28.6-8 38.6 8.7v10.7s-32 10-6 49.2l22.1 33.8v19.2s-17.6 19.8-31.5 0c0 0-5.8-9.3 4.1-14.6 0 0 3.8-1.3 7.3 1.3 0 0 7.3 5.9 10.3 11.5 0 0-7.9-35.1-29.8-14.2 0 0-12 28 21.3 35.3 0 0 27.3 3.1 32-19.4v-35.2l11.4-8.7-12-8.7.6-19.9z"/><path class="st1" d="M645.9 476.7l7.4 10.3s-10 5.7-9.2 12.1l-12.6-9.2s3-8.6 12.6-12.5l1.8-.7z"/><path class="st2" d="M644.1 499.1s0 13.5 6.7 21.7l-14.9-1.4s-9.2-15.6-4.5-29.5l12.7 9.2z"/><path class="st1" d="M650.9 520.7l9.3 14.7-12.1 3-12.2-19.1z"/><path class="st2" d="M660.2 535.4l1.9 24.3-14-21.3zM653.3 487v-16.7l-7.4-4.3v10.7zM673.8 488.5l2.1 5.6 14.5-8.6v-6.1z"/><path class="st1" d="M676.2 500.7l-.3-6.6 14.5-8.6v16.9z"/><path class="st2" d="M676.2 500.7l-.5 5.6 14.7 7.9v-11.799999999999999zM675.1 526.3l.7 17.4 11.3-8.7zM624.8 447.4l15.5 12.7s-8.4-8.6-33.1-2.8l-1.5-11.8 5.4 2.6 13.7-.7zM642.4 565.9l1-6.2s7.3 6.7 10 20.4c-.1-.1-5.8-12.2-11-14.2z"/><path class="st1" d="M630.1 568.3l-7.5-5.4s8.8-13.2 20.8-3.2l-1 6.2s-8.5-3.6-12.3 2.4z"/><path class="st2" d="M630.1 568.3l-7.5-5.4s-4.3 8.7 0 21.1l10.4-2.2c0 .1-4.7-4.9-2.9-13.5z"/><path class="st1" d="M622.6 584s6.7 14 27.1 14.5v-11.5s-9.7 3-16.7-5.1l-10.4 2.1z"/><path class="st2" d="M649.6 587s10.1-4.5 12.4-8.1h13.7s-.7 18.1-26.2 19.7l.1-11.6z"/><path class="st1" d="M662.1 559.7l13.7 19.2h-13.7zM662.1 559.7l13.6-9.6-.6-23.8-14.9 9.1z"/><path class="st2" d="M675.7 550.1l.1 28.8-13.7-19.2zM675.1 526.3l-24.2-5.6 9.3 14.7z"/><path class="st1" d="M644.1 499.1l31.6 7.2-.6 20-24.3-5.6c.1 0-6.7-7.7-6.7-21.6z"/><path class="st2" d="M653.3 487l20.4 1.5 2.1 5.6.3 6.5-.5 5.6-31.6-7.2c.1.1-1.3-5.8 9.3-12z"/><path class="st1" d="M653.3 470.3l20.3 6.4.2 11.8-20.5-1.5z"/><path class="st2" d="M648.2 433l-2.3-10.6s-11 4-18.7-3c0 0 7.8 11.9 4.7 18.1l11.4 5.6 4.9-10.1z"/><path class="st1" d="M648.2 433l-2.3-10.6s7.3-2.4 16.1-11.7c0 0-.6 12.4 6.9 15.4l-12.9 14.8-7.8-7.9z"/><path class="st2" d="M679.5 444.4l-25 1.1-1.2-7.4 15.6-12.1s8.9 4.4 18.2-.1c0 0-9 11.2-7.6 18.5z"/><path class="st1" d="M678.5 466l-22.5-12.1 1.4-8.4 22-1.1s1.2 13.3 7.7 17.5c0 0-6.1.7-8.6 4.1z"/><path class="st2" d="M673.6 476.7l-20.3-6.4 2.7-16.4 22.5 12.1s-4.7 6.5-4.9 10.7z"/><path class="st1" d="M623.9 448s20.9 13 22 18l7.4 4.3 4.1-24.8h-9.2l-16.3-8c.1 0-.4 6.1-8 10.5z"/><circle class="st3" cx="648.2" cy="440.8" r="7.8"/><circle class="st4" cx="644.4" cy="440.9" r="3.5"/><path class="st5" d="M645.9 676.5l7.4 10.3s-9.9 5.7-9.2 12.1l-12.6-9.2s3-8.6 12.6-12.5l1.8-.7z"/><path class="st6" d="M644.1 698.9s0 13.5 6.8 21.7l-14.9-1.4s-9.2-15.6-4.4-29.5l12.5 9.2z"/><path class="st5" d="M650.8 720.6l9.4 14.8-12.1 2.9-12.2-19.1z"/><path class="st6" d="M660.2 735.4l1.8 24.2-13.9-21.3zM653.3 686.8v-16.7l-7.4-4.3v10.7zM673.8 688.4l2.1 5.6 14.5-8.7v-6.1z"/><path class="st5" d="M676.2 700.5l-.3-6.5 14.5-8.7v17z"/><path class="st6" d="M676.2 700.5l-.5 5.6 14.7 8v-11.799999999999999zM675.1 726.2l.7 17.4 11.3-8.7zM624.8 647.2l15.5 12.7s-8.4-8.7-33.1-2.8l-1.5-11.9 5.4 2.6 13.7-.6zM642.4 765.9l1-6.3s7.3 6.7 10 20.4c-.1 0-5.9-12.1-11-14.1z"/><path class="st5" d="M630.1 768.3l-7.6-5.4s8.8-13.2 20.8-3.2l-1 6.3c.1-.1-8.4-3.7-12.2 2.3z"/><path class="st6" d="M630.1 768.3l-7.6-5.4s-4.3 8.7 0 21.1l10.4-2.2c.1.1-4.6-5-2.8-13.5z"/><path class="st5" d="M622.5 784s6.7 14 27.1 14.5v-11.5s-9.7 3-16.7-5.1l-10.4 2.1z"/><path class="st6" d="M649.6 787s10.1-4.5 12.4-8.1h13.7s-.7 18.1-26.2 19.7v-11.6z"/><path class="st5" d="M662 759.6l13.8 19.3h-13.8zM662 759.6l13.7-9.6-.6-23.8-14.9 9.2z"/><path class="st6" d="M675.7 750l.1 28.9-13.8-19.3zM675.1 726.2l-24.3-5.6 9.4 14.8z"/><path class="st5" d="M644.1 698.9l31.6 7.2-.6 20.1-24.3-5.6s-6.7-7.8-6.7-21.7z"/><path class="st6" d="M653.3 686.8l20.5 1.5 2.1 5.6.3 6.6-.5 5.6-31.6-7.2s-1.5-5.9 9.2-12.1z"/><path class="st5" d="M653.3 670.1l20.3 6.4.2 11.9-20.5-1.6z"/><path class="st6" d="M648.2 632.7l-2.3-10.6s-11 4-18.7-3c0 0 7.8 11.9 4.7 18.2l11.4 5.6 4.9-10.2z"/><path class="st5" d="M648.2 632.7l-2.3-10.6s7.3-2.4 16.1-11.7c0 0-.6 12.5 6.9 15.4l-12.9 14.8-7.8-7.9z"/><path class="st6" d="M679.5 644.2l-25 1.1-1.2-7.4 15.6-12.1s8.9 4.4 18.2-.1c0 0-9 11.1-7.6 18.5z"/><path class="st5" d="M678.5 665.8l-22.5-12.1 1.4-8.4 22-1.1s1.2 13.3 7.7 17.5c0 0-6.1.7-8.6 4.1z"/><path class="st6" d="M673.6 676.5l-20.3-6.4 2.7-16.5 22.5 12.1c0 .1-4.7 6.6-4.9 10.8z"/><path class="st5" d="M623.9 647.7s20.9 13 22 18.1l7.4 4.3 4.1-24.9h-9.2l-16.3-8s-.4 6.2-8 10.5z"/><ellipse class="st3" cx="648.2" cy="640.6" rx="7.8" ry="7.9"/><ellipse class="st4" cx="644.4" cy="640.7" rx="3.5" ry="3.5"/></svg>