<?xml version="1.0" encoding="utf-8"?>
<!-- Generator: Adobe Illustrator 18.1.1, SVG Export Plug-In . SVG Version: 6.00 Build 0)  -->
<!DOCTYPE svg PUBLIC "-//W3C//DTD SVG 1.1//EN" "http://www.w3.org/Graphics/SVG/1.1/DTD/svg11.dtd">
<svg version="1.1" id="Layer_1" xmlns="http://www.w3.org/2000/svg" xmlns:xlink="http://www.w3.org/1999/xlink" x="0px" y="0px"
	 viewBox="548 404 200 400" style="enable-background:new 548 404 200 400;" xml:space="preserve">
<style type="text/css">
	.st0{fill:#F8971D;stroke:#020202;stroke-width:1.152;stroke-linecap:round;stroke-miterlimit:10;}
	.st1{fill:#25D89D;stroke:#000000;stroke-width:1.152;stroke-linecap:round;stroke-miterlimit:10;}
	.st2{fill:#1AC161;stroke:#000000;stroke-width:1.152;stroke-linecap:round;stroke-miterlimit:10;}
	.st3{fill:#FFFFFF;stroke:#020202;stroke-width:1.152;stroke-linecap:round;stroke-miterlimit:10;}
	.st4{fill:#020202;stroke:#000000;stroke-width:1.152;stroke-linecap:round;stroke-miterlimit:10;}
	.st5{fill:#FFF200;stroke:#000000;stroke-width:1.152;stroke-linecap:round;stroke-miterlimit:10;}
	.st6{fill:#FFAA00;stroke:#000000;stroke-width:1.152;stroke-linecap:round;stroke-miterlimit:10;}
</style>
<g>
	<path class="st0" d="M675.7,506.3l14.7,7.9v-34.8l-16.6,9.2c0,0-4.7-23.9,13.4-26.6c0,0-17.3-16.2,0-36c0,0-26.2,9.4-25.1-15.3
		c0,0-16.9,21.7-34.8,8.7c0,0,13.4,18.6-3.3,28.6h-13.4l-4.8-2.5l1.5,11.8c0,0,28.6-8,38.6,8.7v10.7c0,0-32,10-6,49.2l22.1,33.8
		v19.2c0,0-17.6,19.8-31.5,0c0,0-5.8-9.3,4.1-14.6c0,0,3.8-1.3,7.3,1.3c0,0,7.3,5.9,10.3,11.5c0,0-7.9-35.1-29.8-14.2
		c0,0-12,28,21.3,35.3c0,0,27.3,3.1,32-19.4v-35.2l11.4-8.7l-12-8.7L675.7,506.3z"/>
	<path class="st1" d="M645.9,476.7l7.4,10.3c0,0-10,5.7-9.2,12.1l-12.6-9.2c0,0,3-8.6,12.6-12.5L645.9,476.7z"/>
	<path class="st2" d="M644.1,499.1c0,0,0,13.5,6.7,21.7l-14.9-1.4c0,0-9.2-15.6-4.5-29.5L644.1,499.1z"/>
	<polygon class="st1" points="650.9,520.7 660.2,535.4 648.1,538.4 635.9,519.3 	"/>
	<polygon class="st2" points="660.2,535.4 662.1,559.7 648.1,538.4 	"/>
	<polygon class="st2" points="653.3,487 653.3,470.3 645.9,466 645.9,476.7 	"/>
	<polygon class="st2" points="673.8,488.5 675.9,494.1 690.4,485.5 690.4,479.4 	"/>
	<polygon class="st1" points="676.2,500.7 675.9,494.1 690.4,485.5 690.4,502.4 	"/>
	<polygon class="st2" points="676.2,500.7 675.7,506.3 690.4,514.2 690.4,504.5 690.4,502.4 	"/>
	<polygon class="st2" points="675.1,526.3 675.8,543.7 687.1,535 	"/>
	<path class="st2" d="M624.8,447.4l15.5,12.7c0,0-8.4-8.6-33.1-2.8l-1.5-11.8l5.4,2.6L624.8,447.4z"/>
	<path class="st2" d="M642.4,565.9l1-6.2c0,0,7.3,6.7,10,20.4C653.3,580,647.6,567.9,642.4,565.9z"/>
	<path class="st1" d="M630.1,568.3l-7.5-5.4c0,0,8.8-13.2,20.8-3.2l-1,6.2C642.4,565.9,633.9,562.3,630.1,568.3z"/>
	<path class="st2" d="M630.1,568.3l-7.5-5.4c0,0-4.3,8.7,0,21.1l10.4-2.2C633,581.9,628.3,576.9,630.1,568.3z"/>
	<path class="st1" d="M622.6,584c0,0,6.7,14,27.1,14.5V587c0,0-9.7,3-16.7-5.1L622.6,584z"/>
	<path class="st2" d="M649.6,587c0,0,10.1-4.5,12.4-8.1h13.7c0,0-0.7,18.1-26.2,19.7L649.6,587L649.6,587z"/>
	<polygon class="st1" points="662.1,559.7 675.8,578.9 662.1,578.9 	"/>
	<polygon class="st1" points="662.1,559.7 675.7,550.1 675.1,526.3 660.2,535.4 	"/>
	<polygon class="st2" points="675.7,550.1 675.8,578.9 662.1,559.7 	"/>
	<polygon class="st2" points="675.1,526.3 650.9,520.7 660.2,535.4 	"/>
	<path class="st1" d="M644.1,499.1l31.6,7.2l-0.6,20l-24.3-5.6C650.9,520.7,644.1,513,644.1,499.1z"/>
	<path class="st2" d="M653.3,487l20.4,1.5l2.1,5.6l0.3,6.5l-0.5,5.6l-31.6-7.2C644.1,499.1,642.7,493.2,653.3,487z"/>
	<polygon class="st1" points="653.3,470.3 673.6,476.7 673.8,488.5 653.3,487 	"/>
	<path class="st2" d="M648.2,433l-2.3-10.6c0,0-11,4-18.7-3c0,0,7.8,11.9,4.7,18.1l11.4,5.6L648.2,433z"/>
	<path class="st1" d="M648.2,433l-2.3-10.6c0,0,7.3-2.4,16.1-11.7c0,0-0.6,12.4,6.9,15.4l-12.9,14.8L648.2,433z"/>
	<path class="st2" d="M679.5,444.4l-25,1.1l-1.2-7.4l15.6-12.1c0,0,8.9,4.4,18.2-0.1C687.1,425.9,678.1,437.1,679.5,444.4z"/>
	<path class="st1" d="M678.5,466L656,453.9l1.4-8.4l22-1.1c0,0,1.2,13.3,7.7,17.5C687.1,461.9,681,462.6,678.5,466z"/>
	<path class="st2" d="M673.6,476.7l-20.3-6.4l2.7-16.4l22.5,12.1C678.5,466,673.8,472.5,673.6,476.7z"/>
	<path class="st1" d="M623.9,448c0,0,20.9,13,22,18l7.4,4.3l4.1-24.8h-9.2l-16.3-8C632,437.5,631.5,443.6,623.9,448z"/>
	<circle class="st3" cx="648.2" cy="440.8" r="7.8"/>
	<circle class="st4" cx="644.4" cy="440.9" r="3.5"/>
</g>
<g>
	<path class="st5" d="M645.9,676.5l7.4,10.3c0,0-9.9,5.7-9.2,12.1l-12.6-9.2c0,0,3-8.6,12.6-12.5L645.9,676.5z"/>
	<path class="st6" d="M644.1,698.9c0,0,0,13.5,6.8,21.7l-14.9-1.4c0,0-9.2-15.6-4.4-29.5L644.1,698.9z"/>
	<polygon class="st5" points="650.8,720.6 660.2,735.4 648.1,738.3 635.9,719.2 	"/>
	<polygon class="st6" points="660.2,735.4 662,759.6 648.1,738.3 	"/>
	<polygon class="st6" points="653.3,686.8 653.3,670.1 645.9,665.8 645.9,676.5 	"/>
	<polygon class="st6" points="673.8,688.4 675.9,694 690.4,685.3 690.4,679.2 	"/>
	<polygon class="st5" points="676.2,700.5 675.9,694 690.4,685.3 690.4,702.3 	"/>
	<polygon class="st6" points="676.2,700.5 675.7,706.1 690.4,714.1 690.4,704.4 690.4,702.3 	"/>
	<polygon class="st6" points="675.1,726.2 675.8,743.6 687.1,734.9 	"/>
	<path class="st6" d="M624.8,647.2l15.5,12.7c0,0-8.4-8.7-33.1-2.8l-1.5-11.9l5.4,2.6L624.8,647.2z"/>
	<path class="st6" d="M642.4,765.9l1-6.3c0,0,7.3,6.7,10,20.4C653.3,780,647.5,767.9,642.4,765.9z"/>
	<path class="st5" d="M630.1,768.3l-7.6-5.4c0,0,8.8-13.2,20.8-3.2l-1,6.3C642.4,765.9,633.9,762.3,630.1,768.3z"/>
	<path class="st6" d="M630.1,768.3l-7.6-5.4c0,0-4.3,8.7,0,21.1l10.4-2.2C633,781.9,628.3,776.8,630.1,768.3z"/>
	<path class="st5" d="M622.5,784c0,0,6.7,14,27.1,14.5V787c0,0-9.7,3-16.7-5.1L622.5,784z"/>
	<path class="st6" d="M649.6,787c0,0,10.1-4.5,12.4-8.1h13.7c0,0-0.7,18.1-26.2,19.7V787z"/>
	<polygon class="st5" points="662,759.6 675.8,778.9 662,778.9 	"/>
	<polygon class="st5" points="662,759.6 675.7,750 675.1,726.2 660.2,735.4 	"/>
	<polygon class="st6" points="675.7,750 675.8,778.9 662,759.6 	"/>
	<polygon class="st6" points="675.1,726.2 650.8,720.6 660.2,735.4 	"/>
	<path class="st5" d="M644.1,698.9l31.6,7.2l-0.6,20.1l-24.3-5.6C650.8,720.6,644.1,712.8,644.1,698.9z"/>
	<path class="st6" d="M653.3,686.8l20.5,1.5l2.1,5.6l0.3,6.6l-0.5,5.6l-31.6-7.2C644.1,698.9,642.6,693,653.3,686.8z"/>
	<polygon class="st5" points="653.3,670.1 673.6,676.5 673.8,688.4 653.3,686.8 	"/>
	<path class="st6" d="M648.2,632.7l-2.3-10.6c0,0-11,4-18.7-3c0,0,7.8,11.9,4.7,18.2l11.4,5.6L648.2,632.7z"/>
	<path class="st5" d="M648.2,632.7l-2.3-10.6c0,0,7.3-2.4,16.1-11.7c0,0-0.6,12.5,6.9,15.4L656,640.6L648.2,632.7z"/>
	<path class="st6" d="M679.5,644.2l-25,1.1l-1.2-7.4l15.6-12.1c0,0,8.9,4.4,18.2-0.1C687.1,625.7,678.1,636.8,679.5,644.2z"/>
	<path class="st5" d="M678.5,665.8L656,653.7l1.4-8.4l22-1.1c0,0,1.2,13.3,7.7,17.5C687.1,661.7,681,662.4,678.5,665.8z"/>
	<path class="st6" d="M673.6,676.5l-20.3-6.4l2.7-16.5l22.5,12.1C678.5,665.8,673.8,672.3,673.6,676.5z"/>
	<path class="st5" d="M623.9,647.7c0,0,20.9,13,22,18.1l7.4,4.3l4.1-24.9h-9.2l-16.3-8C631.9,637.2,631.5,643.4,623.9,647.7z"/>
	<ellipse class="st3" cx="648.2" cy="640.6" rx="7.8" ry="7.9"/>
	<ellipse class="st4" cx="644.4" cy="640.7" rx="3.5" ry="3.5"/>
</g>
</svg>
