<?xml version="1.0" encoding="utf-8"?>
<!-- Generator: Adobe Illustrator 18.1.1, SVG Export Plug-In . SVG Version: 6.00 Build 0)  -->
<!DOCTYPE svg PUBLIC "-//W3C//DTD SVG 1.1//EN" "http://www.w3.org/Graphics/SVG/1.1/DTD/svg11.dtd">
<svg version="1.1" id="Layer_1" xmlns="http://www.w3.org/2000/svg" xmlns:xlink="http://www.w3.org/1999/xlink" x="0px" y="0px"
	 viewBox="0 0 612 1224" style="enable-background:new 0 0 612 1224;" xml:space="preserve">
<style type="text/css">
	.st0{fill:#FFFFFF;}
</style>
<path class="st0" d="M486,622.9l95.7,51.6V447.6l-108.2,59.7c0,0-30.5-156,87-173.4c0,0-112.5-105.7,0-234.4
	c0,0-170.9,60.9-163.5-99.5c0,0-110,141.1-226.9,56.6c0,0,87,121.2-21.8,186.5h-87l-31.1-16.2l9.9,77.1c0,0,186.5-52.2,251.8,56.6
	v69.6c0,0-208.2,65.3-39.2,320.8L397.1,971v124.9c0,0-114.4,129.3-205.1,0c0,0-37.9-60.3,26.7-95.1c0,0,24.9-8.7,47.9,8.7
	c0,0,47.9,38.5,67.1,75.2c0,0-51.6-228.8-194-92.6c0,0-78.3,182.1,138.6,230c0,0,177.8,20.5,208.2-126.2V866.6l74-56.6l-78.3-56.6"
	/>
</svg>
