<?xml version="1.0" encoding="utf-8"?>
<!-- Generator: Adobe Illustrator 18.1.1, SVG Export Plug-In . SVG Version: 6.00 Build 0)  -->
<!DOCTYPE svg PUBLIC "-//W3C//DTD SVG 1.1//EN" "http://www.w3.org/Graphics/SVG/1.1/DTD/svg11.dtd">
<svg version="1.1" id="Layer_1" xmlns="http://www.w3.org/2000/svg" xmlns:xlink="http://www.w3.org/1999/xlink" x="0px" y="0px"
	 viewBox="0 0 1296 1008" style="enable-background:new 0 0 1296 1008;" xml:space="preserve">
<style type="text/css">
	.st0{fill:#F8971D;stroke:#020202;stroke-width:4.536;stroke-linecap:round;stroke-miterlimit:10;}
	.st1{fill:#25D89D;stroke:#000000;stroke-width:4.536;stroke-linecap:round;stroke-miterlimit:10;}
	.st2{fill:#1AC161;stroke:#000000;stroke-width:4.536;stroke-linecap:round;stroke-miterlimit:10;}
	.st3{fill:#FFFFFF;stroke:#020202;stroke-width:4.536;stroke-linecap:round;stroke-miterlimit:10;}
	.st4{fill:#020202;stroke:#000000;stroke-width:4.536;stroke-linecap:round;stroke-miterlimit:10;}
</style>
<path class="st0" d="M796.2,513l78.8,42.5V368.6l-89,49.1c0,0-25.1-128.5,71.7-142.8c0,0-92.7-87,0-193c0,0-140.8,50.2-134.6-81.9
	c0,0-90.6,116.2-186.9,46.6c0,0,71.7,99.8-17.9,153.6h-71.7L421,186.9l8.2,63.5c0,0,153.6-43,207.3,46.6v57.3
	c0,0-171.5,53.8-32.3,264.2L723,799.6v102.9c0,0-94.2,106.5-168.9,0c0,0-31.2-49.7,22-78.3c0,0,20.5-7.2,39.4,7.2
	c0,0,39.4,31.7,55.3,61.9c0,0-42.5-188.4-159.7-76.3c0,0-64.5,150,114.2,189.4c0,0,146.4,16.9,171.5-103.9V713.6l60.9-46.6
	l-64.5-46.6L796.2,513z"/>
<path class="st1" d="M636.5,354.3l39.8,55.2c0,0-53.4,30.5-49.6,64.8L559,424.9c0,0,16.2-45.9,67.7-66.8L636.5,354.3z"/>
<path class="st2" d="M626.7,474.3c0,0,0,72.4,36.2,116.3l-80-7.6c0,0-49.6-83.7-23.9-158.1L626.7,474.3z"/>
<polygon class="st1" points="662.9,590.6 712.9,669.5 648,685.2 582.8,583 "/>
<polygon class="st2" points="712.9,669.5 723,799.6 648,685.2 "/>
<polygon class="st2" points="676.2,409.5 676.2,320.2 636.5,296.9 636.5,354.3 "/>
<polygon class="st2" points="786,417.7 797.5,447.8 875,401.6 875,368.6 "/>
<polygon class="st1" points="799.1,482.9 797.5,447.8 875,401.6 875,492.5 "/>
<polygon class="st2" points="799.1,482.9 796.2,513 875,555.4 875,503.6 875,492.5 "/>
<polygon class="st2" points="793.1,620.5 796.7,713.6 857.6,667.1 "/>
<path class="st2" d="M523.2,197.2l83.4,67.9c0,0-44.9-46.3-177.5-14.8l-8.2-63.5l28.8,13.7L523.2,197.2z"/>
<path class="st2" d="M617.6,833.1l5.1-33.5c0,0,39.1,35.8,53.5,109.2C676.2,908.8,645.2,843.8,617.6,833.1z"/>
<path class="st1" d="M551.6,846.1l-40.5-29c0,0,47-70.8,111.7-17.4l-5.1,33.5C617.6,833.1,572.1,813.6,551.6,846.1z"/>
<path class="st2" d="M551.6,846.1l-40.5-29c0,0-23.2,46.8,0,113.2l55.8-11.6C566.9,918.6,541.8,891.8,551.6,846.1z"/>
<path class="st1" d="M511.1,930.2c0,0,36.1,74.9,145.3,77.8v-62c0,0-52,15.9-89.5-27.4L511.1,930.2z"/>
<path class="st2" d="M656.4,946c0,0,54.4-24.3,66.6-43.5h73.7c0,0-3.6,97.2-140.4,105.5L656.4,946L656.4,946z"/>
<polygon class="st1" points="723,799.6 796.7,902.5 723,902.5 "/>
<polygon class="st1" points="723,799.6 796.2,748.2 793.1,620.5 712.9,669.5 "/>
<polygon class="st2" points="796.2,748.2 796.7,902.5 723,799.6 "/>
<polygon class="st2" points="793.1,620.5 662.9,590.6 712.9,669.5 "/>
<path class="st1" d="M626.7,474.3L796.2,513l-3.1,107.5l-130.2-29.8C662.9,590.6,626.9,548.9,626.7,474.3z"/>
<path class="st2" d="M676.2,409.5l109.7,8.2l11.5,30.1l1.6,35.1l-2.8,30.1l-169.5-38.6C626.7,474.3,618.9,442.7,676.2,409.5z"/>
<polygon class="st1" points="676.2,320.2 785.1,354.3 786,417.7 676.2,409.5 "/>
<path class="st2" d="M648.7,119.7l-12.2-56.9c0,0-58.8,21.7-100.3-16.2c0,0,41.6,63.7,25.3,97.3l61.3,30L648.7,119.7z"/>
<path class="st1" d="M648.7,119.7l-12.2-56.9c0,0,39.1-12.7,86.5-62.8c0,0-3.1,66.7,36.9,82.5l-69.1,79.3L648.7,119.7z"/>
<path class="st2" d="M816.5,181.2l-134,5.7l-6.2-39.6l83.6-64.8c0,0,47.7,23.6,97.8-0.6C857.6,81.9,809.2,141.8,816.5,181.2z"/>
<path class="st1" d="M811.3,296.9L690.7,232l7.4-45.2l118.3-5.7c0,0,6.5,71.4,41.2,93.7C857.6,274.9,824.8,278.8,811.3,296.9z"/>
<path class="st2" d="M785.1,354.3l-108.9-34.1l14.5-88.2l120.6,64.9C811.3,296.9,786,331.6,785.1,354.3z"/>
<path class="st1" d="M518.2,200.2c0,0,112.2,69.9,118.3,96.8l39.8,23.3L698.2,187h-49.5l-87.2-42.9
	C561.5,143.9,559,176.9,518.2,200.2z"/>
<circle class="st3" cx="648.7" cy="161.8" r="42.1"/>
<circle class="st4" cx="628.2" cy="162.5" r="18.6"/>
</svg>
