<?xml version="1.0" encoding="utf-8"?>
<!-- Generator: Adobe Illustrator 18.1.1, SVG Export Plug-In . SVG Version: 6.00 Build 0)  -->
<!DOCTYPE svg PUBLIC "-//W3C//DTD SVG 1.1//EN" "http://www.w3.org/Graphics/SVG/1.1/DTD/svg11.dtd">
<svg version="1.1" id="Layer_1" xmlns="http://www.w3.org/2000/svg" xmlns:xlink="http://www.w3.org/1999/xlink" x="0px" y="0px"
	 width="249.9px" height="168.3px" viewBox="0 0 249.9 168.3" style="enable-background:new 0 0 249.9 168.3;" xml:space="preserve"
	>
<style type="text/css">
	.st0{fill:#A1CD3C;stroke:#000000;stroke-miterlimit:10;}
	.st1{fill:#C8B72E;stroke:#000000;stroke-miterlimit:10;}
	.st2{fill:#9E702A;stroke:#000000;stroke-miterlimit:10;}
	.st3{fill:none;stroke:#000000;stroke-miterlimit:10;}
	.st4{fill:#FFFFFF;stroke:#000000;stroke-miterlimit:10;}
	.st5{fill:#FFFFFF;stroke:#000000;stroke-width:2;stroke-miterlimit:10;}
	.st6{fill:#A1CD3C;stroke:#000000;stroke-linecap:round;stroke-miterlimit:10;}
	.st7{stroke:#000000;stroke-linecap:round;stroke-miterlimit:10;}
</style>
<ellipse transform="matrix(-0.3635 0.9316 -0.9316 -0.3635 402.2454 -4.3578)" class="st0" cx="202.6" cy="135.2" rx="19.3" ry="30.5"/>
<path class="st1" d="M32.6,119.2c0,0,60.2,72.1,161.3,19.9c0,0,6.9-13.3,4.9-26.5C198.8,112.7,44,64.1,32.6,119.2z"/>
<path class="st2" d="M30.6,97.7c0,0,6.4-58.4,74.8-58.9c0,0,33.3-1.3,60.9,29.5c0,0,34.4,37.4,33.3,48.8
	C199.6,117.1,83.5,167.2,30.6,97.7z"/>
<polyline class="st3" points="122.9,65.5 138.5,90.5 125.5,112.7 "/>
<circle class="st1" cx="156" cy="108.5" r="25.1"/>
<path class="st0" d="M245.6,54.9c0,0,4.2-11.5-6.9-23c0,0-19.9-28.7-60.9-14.4c0,0-14.2,4.8-10.3,43.5c0,0-2.3,29.1-21.1,38.7
	c0,0-10.3,31.8,36.8,10.3c0,0,12.6-2.3,23-26.8c0,0,17.6,5.4,24.5-5.7c0,0,8.8,5.4,9.2,0.4L245.6,54.9z"/>
<circle class="st4" cx="196.9" cy="19.7" r="19.2"/>
<circle class="st4" cx="235" cy="17.6" r="14.4"/>
<circle class="st5" cx="199.6" cy="22.5" r="5"/>
<circle class="st5" cx="237.6" cy="21.5" r="2.5"/>
<path class="st6" d="M230.6,77.5c0,0-23.1-5.3-36-24.5"/>
<ellipse class="st7" cx="225.2" cy="53.6" rx="0.9" ry="2.6"/>
<ellipse class="st7" cx="232.2" cy="53.6" rx="0.9" ry="2.6"/>
<circle class="st1" cx="104" cy="125.5" r="25.1"/>
<ellipse transform="matrix(0.8333 -0.5529 0.5529 0.8333 -58.7537 85.6429)" class="st0" cx="112.6" cy="140.2" rx="19.3" ry="30.5"/>
<ellipse class="st1" cx="46.3" cy="109.8" rx="20.4" ry="21.5"/>
<ellipse transform="matrix(0.5018 0.865 -0.865 0.5018 117.3897 34.6558)" class="st0" cx="28.6" cy="119.2" rx="19.3" ry="30.5"/>
<polyline class="st3" points="69.6,45.9 81.7,64.7 122.9,65.5 145.4,50.9 "/>
<line class="st3" x1="81.7" y1="64.7" x2="61.4" y2="95.4"/>
<line class="st3" x1="66.7" y1="104.4" x2="80.2" y2="117.5"/>
<g>
</g>
<g>
</g>
<g>
</g>
<g>
</g>
<g>
</g>
<g>
</g>
<g>
</g>
<g>
</g>
<g>
</g>
<g>
</g>
<g>
</g>
<g>
</g>
<g>
</g>
<g>
</g>
<g>
</g>
</svg>
